<?xml version="1.0" encoding="utf-8"?>
<!-- Generator: Adobe Illustrator 21.1.0, SVG Export Plug-In . SVG Version: 6.00 Build 0)  -->
<svg version="1.1" id="Isolation_Mode" xmlns="http://www.w3.org/2000/svg" xmlns:xlink="http://www.w3.org/1999/xlink" x="0px"
	 y="0px" viewBox="0 0 612 612" style="enable-background:new 0 0 612 612;" xml:space="preserve">
<path d="M370.4,317.2c31.7-28.9,51.7-70.5,51.7-116.8c0-87.4-70.9-158.3-158.3-158.3s-158.3,70.9-158.3,158.3
	c0,46.3,20,87.8,51.7,116.8C64.6,337.7,0,384,0,437.9c0,72.8,118.1,131.9,263.8,131.9c145.7,0,263.8-59,263.8-131.9
	C527.6,384,463,337.7,370.4,317.2z M126.6,200.5c0-75.8,61.4-137.2,137.2-137.2c75.8,0,137.2,61.4,137.2,137.2
	c0,75.8-61.4,137.2-137.2,137.2S126.6,276.3,126.6,200.5z M263.8,548.7c-134,0-242.7-49.6-242.7-110.8c0-47.6,65.7-88.2,158-103.9
	c24.5,15.6,53.5,24.7,84.7,24.7c31.2,0,60.2-9.1,84.7-24.7c92.3,15.7,158,56.3,158,103.9C506.5,499.1,397.8,548.7,263.8,548.7z"/>
</svg>
