<svg version="1.1" id="Layer_1" xmlns="http://www.w3.org/2000/svg" xmlns:xlink="http://www.w3.org/1999/xlink" x="0px" y="0px" width="70px" height="70px" viewBox="0 0 70 70" enable-background="new 0 0 70 70" xml:space="preserve">

                <g>

                  <g>

                    <defs>

                      <rect id="SVGID_1_" width="69.4" height="71.3"/>

                    </defs>

                    <clipPath id="SVGID_2_">

                      <use xlink:href="#SVGID_1_" overflow="visible"/>

                    </clipPath>

                    <path clip-path="url(#SVGID_2_)" fill="#474747" d="M6.9,20L62.2,5.8l-0.5-2.2c-0.6-2.6-3.4-4.2-6-3.5L10,11.9

			c-2.6,0.6-4.2,3.4-3.5,6L6.9,20z M6.9,20"/>

                    <path clip-path="url(#SVGID_2_)" fill="#474747" d="M65.7,39c2.6-0.6,4.2-3.4,3.6-6l-4.5-17.6l-38.6,9.9h26.1

			c5.2,0,9.6,4.3,9.6,9.6v5.2L65.7,39z M65.7,39"/>

                  </g>

                  <path fill="#474747" d="M57.1,34.8c0-2.8-2.2-4.9-4.9-4.9H4.9c-2.8,0-4.9,2.2-4.9,4.9v30.2C0,67.8,2.2,70,4.9,70h47.2

		c2.8,0,4.9-2.2,4.9-4.9V34.8z M5.4,38.4c0-1.2,1.1-2.3,2.3-2.3h26.2c1.2,0,2.3,1.1,2.3,2.3c0,1.2-1.1,2.3-2.3,2.3H7.7

		C6.5,40.7,5.4,39.6,5.4,38.4L5.4,38.4z M35.2,65.5c-4.3,0-7.9-3.6-7.9-7.9c0-4.3,3.5-7.7,7.9-7.7c4.3,0,7.9,3.5,7.9,7.9

		C43,62.1,39.5,65.5,35.2,65.5L35.2,65.5z M52.1,57.8c0,4.3-3.5,7.9-7.9,7.9c-0.5,0-1.1,0-1.5-0.2c2-2,3.1-4.6,3.1-7.7

		c0-3.1-1.2-5.7-3.1-7.7c0.5-0.2,0.9-0.2,1.5-0.2C48.7,50,52.1,53.5,52.1,57.8L52.1,57.8z M52.1,57.8"/>

                </g>

                </svg>