

<svg version="1.1"  xmlns="http://www.w3.org/2000/svg" xmlns:xlink="http://www.w3.org/1999/xlink" x="0px" y="0px"
	 width="70px" height="70px" viewBox="0 0 70 70" enable-background="new 0 0 70 70" xml:space="preserve">
<g>
	<path fill="#474747" d="M0,28.5c0,4.1,2.8,7.5,6.6,8.5v28.8H2.2c-1.2,0-2.2,1-2.2,2.2s1,2.2,2.2,2.2h65.7c1.2,0,2.2-1,2.2-2.2
		s-1-2.2-2.2-2.2h-4.4V36.9c3.8-1,6.6-4.4,6.6-8.5v-2.2H0V28.5z M43.8,37.2c4.8,0,8.8-3.9,8.8-8.8c0,4.1,2.8,7.5,6.6,8.5v28.8H26.3
		V37.2c4.8,0,8.8-3.9,8.8-8.8C35,33.3,39,37.2,43.8,37.2L43.8,37.2z M24.1,36.9v28.8H11V36.9c3.8-1,6.6-4.4,6.6-8.5
		C17.5,32.5,20.3,35.9,24.1,36.9L24.1,36.9z M61.3,6.6H8.8L0,24.1h70.1L61.3,6.6z M18.6,52.9v-5c-0.6-0.4-1.1-1.1-1.1-1.9
		c0-1.2,1-2.2,2.2-2.2c1.2,0,2.2,1,2.2,2.2c0,0.8-0.4,1.5-1.1,1.9v5c0.6,0.4,1.1,1.1,1.1,1.9c0,1.2-1,2.2-2.2,2.2
		c-1.2,0-2.2-1-2.2-2.2C17.5,54,18,53.3,18.6,52.9L18.6,52.9z M8.8,2.2C8.8,1,9.7,0,11,0h48.2c1.2,0,2.2,1,2.2,2.2s-1,2.2-2.2,2.2
		H11C9.7,4.4,8.8,3.4,8.8,2.2L8.8,2.2z M38.4,49l-1.5-1.5l6.2-6.2l1.5,1.5L38.4,49z M38.4,55.2l-1.5-1.5l12.4-12.4l1.5,1.5
		L38.4,55.2z M49.2,47.4l1.5,1.5l-6.2,6.2L43,53.6L49.2,47.4z M49.2,47.4"/>
</g>
</svg>
