<?xml version="1.0" encoding="utf-8"?>
<!-- Generator: Adobe Illustrator 18.1.0, SVG Export Plug-In . SVG Version: 6.00 Build 0)  -->
<svg version="1.1" id="Layer_1" xmlns="http://www.w3.org/2000/svg" xmlns:xlink="http://www.w3.org/1999/xlink" x="0px" y="0px"
	 viewBox="15 -14 70 70" enable-background="new 15 -14 70 70" xml:space="preserve">
<path fill="#FFFFFF" d="M71.2-10.4H61.1C59.5-12.6,57-14,54.2-14h-7.8c-2.8,0-5.4,1.4-6.9,3.6H29.4C24.7-10.4,21-6.6,21-2v3.4
	c0,1.9,1.5,3.4,3.4,3.4h2.4L29,49.3c0.3,3.7,3.4,6.7,7.1,6.7h28.3c3.7,0,6.8-2.9,7.1-6.7l2.2-44.5h2.4c1.9,0,3.4-1.5,3.4-3.4V-2
	C79.5-6.6,75.8-10.4,71.2-10.4z M45.9,40c0,1.7-1.4,3.2-3.2,3.2c-1.8,0-3.2-1.4-3.2-3.2V11.7c0-1.7,1.4-3.2,3.2-3.2
	c1.7,0,3.2,1.4,3.2,3.2V40z M61,40c0,1.7-1.4,3.2-3.2,3.2c-1.7,0-3.2-1.4-3.2-3.2V11.7c0-1.7,1.4-3.2,3.2-3.2c1.7,0,3.2,1.4,3.2,3.2
	V40z M74.4-0.4H26.2V-2c0-1.8,1.4-3.2,3.2-3.2H41c1,0,2-0.6,2.4-1.6c0.5-1.2,1.7-2,3-2h7.8c1.3,0,2.5,0.8,3,2c0.4,1,1.3,1.6,2.4,1.6
	h11.6c1.8,0,3.2,1.4,3.2,3.2L74.4-0.4L74.4-0.4z"/>
</svg>
