<?xml version="1.0" encoding="utf-8"?>
<!-- Generator: Adobe Illustrator 18.1.0, SVG Export Plug-In . SVG Version: 6.00 Build 0)  -->
<svg version="1.1" id="Layer_1" xmlns="http://www.w3.org/2000/svg" xmlns:xlink="http://www.w3.org/1999/xlink" x="0px" y="0px"
	 width="70px" height="70px" viewBox="-89 91 70 70" enable-background="new -89 91 70 70" xml:space="preserve">
<g>
	<g>
		<path fill="#474747" d="M-25.4,112.2c-0.1-0.1-0.3-0.1-0.5-0.1c0,0-18.7,6.4-19.2,6.5c-0.4,0.1-0.7-0.2-0.7-0.2l-5.9-7.3
			c-0.1-0.2-0.4-0.3-0.6-0.2c-0.2,0.1-0.4,0.3-0.4,0.5v26.4c0,0.2,0.1,0.4,0.2,0.5c0.1,0.1,0.2,0.1,0.3,0.1c0.1,0,0.1,0,0.2,0
			l26.5-10.9c0.2-0.1,0.3-0.3,0.3-0.5v-14.4C-25.1,112.4-25.2,112.3-25.4,112.2z"/>
		<path fill="#474747" d="M-19.2,106.3l-5-6.7c-0.1-0.1-0.2-0.2-0.3-0.2L-53.9,91c-0.1,0-0.2,0-0.3,0l-29.3,8.3
			c-0.1,0-0.2,0.1-0.3,0.2l-5,6.7c-0.1,0.1-0.1,0.3-0.1,0.5c0.1,0.2,0.2,0.3,0.3,0.4l24.8,8.4c0.1,0,0.1,0,0.2,0
			c0.2,0,0.3-0.1,0.4-0.2l6.9-8.6l2.1,0.6c0.1,0,0.2,0,0.3,0v0c0,0,0,0,0,0l2.1-0.6l6.9,8.6c0.1,0.1,0.3,0.2,0.4,0.2
			c0.1,0,0.1,0,0.2,0l24.8-8.4c0.2-0.1,0.3-0.2,0.3-0.4C-19,106.6-19.1,106.4-19.2,106.3z M-54,105l-21-5.7l21-5.9l21,5.9L-54,105z"
			/>
		<path fill="#474747" d="M-55.7,111c-0.2-0.1-0.5,0-0.6,0.2l-5.9,7.3c0,0-0.3,0.4-0.7,0.2c-0.5-0.2-19.2-6.5-19.2-6.5
			c-0.2-0.1-0.4,0-0.5,0.1c-0.1,0.1-0.2,0.3-0.2,0.4V127c0,0.2,0.1,0.4,0.3,0.5l26.5,10.9c0.1,0,0.1,0,0.2,0c0.1,0,0.2,0,0.3-0.1
			c0.2-0.1,0.2-0.3,0.2-0.5v-26.4C-55.4,111.2-55.5,111-55.7,111z"/>
	</g>
</g>
</svg>
