<?xml version="1.0" encoding="UTF-8" standalone="no"?>
<svg width="22px" height="22px" viewBox="0 0 22 22" version="1.1" xmlns="http://www.w3.org/2000/svg" xmlns:xlink="http://www.w3.org/1999/xlink">
    <!-- Generator: Sketch 49.3 (51167) - http://www.bohemiancoding.com/sketch -->
    <title>Icon / Simple Outlined / *Icon Pack</title>
    <desc>Created with Sketch.</desc>
    <defs>
        <path d="M18.453192,19.9297664 L22.1460837,23.6226402 C22.5562572,24.0328117 23.2109058,24.0316086 23.6212779,23.6212384 C24.0324671,23.2100512 24.0319061,22.5552758 23.6226797,22.1460514 L19.929788,18.4531776 L18.453192,19.9297664 Z M16.705368,21.1351286 C15.689713,21.569971 14.5711851,21.8107143 13.3964286,21.8107143 C8.74934689,21.8107143 4.98214286,18.0435103 4.98214286,13.3964286 C4.98214286,8.74934689 8.74934689,4.98214286 13.3964286,4.98214286 C18.0435103,4.98214286 21.8107143,8.74934689 21.8107143,13.3964286 C21.8107143,14.5711761 21.5699746,15.6896959 21.1351386,16.7053447 L25.0992757,20.6694626 C26.3234377,21.8936187 26.3251314,23.8705757 25.0978739,25.0978272 C23.8732128,26.3224824 21.8963801,26.3261153 20.6694877,25.099229 L16.705368,21.1351286 Z M13.3964286,19.7071429 C16.8817398,19.7071429 19.7071429,16.8817398 19.7071429,13.3964286 C19.7071429,9.91111731 16.8817398,7.08571429 13.3964286,7.08571429 C9.91111731,7.08571429 7.08571429,9.91111731 7.08571429,13.3964286 C7.08571429,16.8817398 9.91111731,19.7071429 13.3964286,19.7071429 Z" id="path-1"></path>
    </defs>
    <g id="Welcome" stroke="none" stroke-width="1" fill="none" fill-rule="evenodd" opacity="0.8">
        <g id="Mobile-Portrait" transform="translate(-151.000000, -396.000000)">
            <g id="HeroTop" transform="translate(-1.000000, 62.000000)">
                <g id="Icon-/-Simple-Outlined-/-*Icon-Pack" transform="translate(147.000000, 329.000000)">
                    <g id="Icon-/-Simple-Outlined-/-Search" transform="translate(0.551724, 0.551724)">
                        <mask id="mask-2" fill="white">
                            <use xlink:href="#path-1"></use>
                        </mask>
                        <use id="Combined-Shape" fill="#4A4A4A" fill-rule="nonzero" xlink:href="#path-1"></use>
                        <g id="Base-/-Fill-/-Light-Gray" mask="url(#mask-2)" fill="#FAFAFA" fill-rule="evenodd">
                            <rect id="Fill" x="0" y="0" width="31" height="31"></rect>
                        </g>
                    </g>
                </g>
            </g>
        </g>
    </g>
</svg>