<?xml version="1.0" encoding="utf-8"?>
<!-- Generator: Adobe Illustrator 16.0.0, SVG Export Plug-In . SVG Version: 6.00 Build 0)  -->
<!DOCTYPE svg PUBLIC "-//W3C//DTD SVG 1.1//EN" "http://www.w3.org/Graphics/SVG/1.1/DTD/svg11.dtd">
<svg version="1.1" id="Layer_1" xmlns="http://www.w3.org/2000/svg" xmlns:xlink="http://www.w3.org/1999/xlink" x="0px" y="0px"
	 width="138.11px" height="31.996px" viewBox="0 0 138.11 31.996" enable-background="new 0 0 138.11 31.996" xml:space="preserve">
<g>
	<path fill="#FFFFFF" d="M137.61,15.998c0,8.56-6.938,15.498-15.498,15.498H15.998c-8.56,0-15.498-6.938-15.498-15.498l0,0
		C0.5,7.439,7.438,0.5,15.998,0.5h106.114C130.672,0.5,137.61,7.439,137.61,15.998L137.61,15.998z"/>
	<path fill="#E15445" d="M122.112,31.996H15.998C7.177,31.996,0,24.819,0,15.998S7.177,0,15.998,0h106.114
		c8.821,0,15.998,7.177,15.998,15.998S130.934,31.996,122.112,31.996z M15.998,1C7.728,1,1,7.728,1,15.998
		s6.728,14.998,14.998,14.998h106.114c8.27,0,14.998-6.728,14.998-14.998S130.382,1,122.112,1H15.998z"/>
</g>
<g>
	<circle fill="#FFFFFF" cx="122.289" cy="16" r="15.335"/>
	<path fill="#E15445" d="M122.289,31.835c-8.732,0-15.836-7.104-15.836-15.835s7.104-15.835,15.836-15.835
		c8.731,0,15.835,7.104,15.835,15.835S131.021,31.835,122.289,31.835z M122.289,1.165c-8.181,0-14.836,6.655-14.836,14.835
		s6.655,14.835,14.836,14.835c8.18,0,14.835-6.655,14.835-14.835S130.469,1.165,122.289,1.165z"/>
</g>
<g>
	<path fill="#E15445" d="M25.422,20.57h-0.975c-0.113,0-0.204-0.028-0.273-0.084s-0.121-0.128-0.156-0.214l-0.871-2.249h-4.18
		l-0.871,2.249c-0.031,0.078-0.083,0.147-0.156,0.208c-0.074,0.061-0.165,0.091-0.273,0.091h-0.975l3.725-9.314h1.28L25.422,20.57z
		 M19.319,17.112h3.478l-1.462-3.79c-0.095-0.234-0.188-0.526-0.28-0.877c-0.047,0.178-0.094,0.341-0.14,0.491
		s-0.09,0.281-0.133,0.393L19.319,17.112z"/>
	<path fill="#E15445" d="M34.672,15.916c0,0.698-0.111,1.333-0.332,1.904c-0.221,0.572-0.533,1.062-0.936,1.469
		c-0.403,0.407-0.886,0.722-1.45,0.945c-0.563,0.224-1.187,0.335-1.872,0.335h-3.484v-9.314h3.484c0.685,0,1.309,0.111,1.872,0.334
		c0.563,0.224,1.047,0.54,1.45,0.949s0.715,0.9,0.936,1.472C34.561,14.583,34.672,15.218,34.672,15.916z M33.378,15.916
		c0-0.572-0.078-1.083-0.234-1.534c-0.156-0.451-0.377-0.832-0.663-1.144c-0.286-0.312-0.633-0.55-1.04-0.715
		c-0.408-0.165-0.86-0.247-1.358-0.247h-2.217v7.273h2.217c0.498,0,0.951-0.082,1.358-0.247c0.407-0.165,0.754-0.402,1.04-0.712
		c0.286-0.31,0.507-0.69,0.663-1.141C33.3,16.999,33.378,16.488,33.378,15.916z"/>
	<path fill="#E15445" d="M44.461,15.916c0,0.698-0.111,1.333-0.332,1.904c-0.221,0.572-0.533,1.062-0.936,1.469
		c-0.403,0.407-0.886,0.722-1.45,0.945c-0.563,0.224-1.187,0.335-1.872,0.335h-3.484v-9.314h3.484c0.685,0,1.309,0.111,1.872,0.334
		c0.563,0.224,1.047,0.54,1.45,0.949s0.715,0.9,0.936,1.472C44.35,14.583,44.461,15.218,44.461,15.916z M43.167,15.916
		c0-0.572-0.078-1.083-0.234-1.534c-0.156-0.451-0.377-0.832-0.663-1.144c-0.286-0.312-0.633-0.55-1.04-0.715
		c-0.408-0.165-0.86-0.247-1.358-0.247h-2.217v7.273h2.217c0.498,0,0.951-0.082,1.358-0.247c0.407-0.165,0.754-0.402,1.04-0.712
		c0.286-0.31,0.507-0.69,0.663-1.141C43.089,16.999,43.167,16.488,43.167,15.916z"/>
	<path fill="#E15445" d="M49.947,19.51h4.03v1.06h-5.291v-9.314h1.261V19.51z"/>
	<path fill="#E15445" d="M56.862,20.57h-1.261v-9.314h1.261V20.57z"/>
	<path fill="#E15445" d="M64.129,12.711c-0.039,0.065-0.08,0.114-0.124,0.146c-0.043,0.033-0.1,0.049-0.169,0.049
		c-0.074,0-0.159-0.037-0.257-0.11c-0.097-0.074-0.221-0.155-0.37-0.244c-0.15-0.089-0.33-0.17-0.54-0.244
		c-0.21-0.073-0.465-0.11-0.764-0.11c-0.282,0-0.531,0.038-0.748,0.114c-0.217,0.076-0.398,0.179-0.543,0.309
		c-0.145,0.13-0.254,0.283-0.328,0.458c-0.074,0.175-0.11,0.365-0.11,0.569c0,0.26,0.063,0.476,0.191,0.646
		c0.128,0.171,0.297,0.317,0.507,0.439c0.21,0.121,0.448,0.227,0.715,0.315c0.267,0.089,0.54,0.181,0.819,0.276
		c0.28,0.096,0.553,0.203,0.819,0.322c0.266,0.119,0.504,0.27,0.715,0.452c0.21,0.182,0.379,0.405,0.507,0.669
		c0.128,0.265,0.192,0.59,0.192,0.975c0,0.408-0.069,0.79-0.208,1.147s-0.341,0.668-0.608,0.933
		c-0.267,0.265-0.594,0.473-0.981,0.624c-0.388,0.152-0.829,0.228-1.323,0.228c-0.602,0-1.151-0.109-1.647-0.328
		c-0.497-0.219-0.92-0.515-1.271-0.887l0.364-0.598c0.034-0.048,0.077-0.088,0.126-0.12c0.05-0.033,0.105-0.049,0.166-0.049
		c0.091,0,0.195,0.049,0.312,0.146c0.117,0.098,0.263,0.205,0.438,0.322c0.176,0.117,0.388,0.225,0.637,0.322
		c0.249,0.098,0.553,0.146,0.913,0.146c0.299,0,0.565-0.041,0.799-0.124c0.234-0.083,0.433-0.198,0.595-0.348
		c0.163-0.15,0.287-0.329,0.374-0.537c0.086-0.208,0.13-0.439,0.13-0.695c0-0.282-0.064-0.512-0.192-0.692
		c-0.127-0.18-0.295-0.33-0.503-0.452c-0.208-0.121-0.445-0.224-0.712-0.309s-0.54-0.171-0.819-0.26
		c-0.28-0.088-0.553-0.191-0.819-0.309c-0.266-0.117-0.503-0.269-0.711-0.455c-0.208-0.186-0.376-0.419-0.504-0.699
		c-0.128-0.279-0.192-0.625-0.192-1.037c0-0.329,0.064-0.648,0.192-0.956s0.313-0.581,0.556-0.819s0.543-0.429,0.9-0.572
		s0.768-0.214,1.232-0.214c0.52,0,0.994,0.083,1.423,0.247s0.804,0.403,1.125,0.715L64.129,12.711z"/>
	<path fill="#E15445" d="M72.592,11.255v1.06h-3.01v8.255h-1.261v-8.255h-3.022v-1.06H72.592z"/>
	<path fill="#E15445" d="M75.413,20.57h-1.261v-9.314h1.261V20.57z"/>
	<path fill="#E15445" d="M78.81,11.297c0.054,0.028,0.116,0.086,0.185,0.172l5.395,7.02c-0.013-0.113-0.021-0.222-0.025-0.328
		c-0.005-0.106-0.007-0.209-0.007-0.309v-6.598h1.104v9.314h-0.637c-0.1,0-0.184-0.017-0.25-0.052
		c-0.067-0.035-0.133-0.093-0.198-0.176l-5.389-7.014c0.009,0.108,0.015,0.215,0.02,0.319s0.006,0.199,0.006,0.286v6.637h-1.105
		v-9.314h0.65C78.672,11.255,78.755,11.27,78.81,11.297z"/>
	<path fill="#E15445" d="M91.891,19.653c0.252,0,0.482-0.012,0.692-0.036s0.408-0.06,0.595-0.107
		c0.187-0.047,0.362-0.105,0.526-0.172c0.165-0.067,0.33-0.144,0.494-0.23v-2.054h-1.442c-0.083,0-0.148-0.023-0.198-0.071
		s-0.075-0.106-0.075-0.176v-0.715h2.86v3.575c-0.234,0.169-0.479,0.316-0.731,0.442c-0.254,0.125-0.524,0.23-0.813,0.315
		c-0.288,0.085-0.597,0.147-0.927,0.189c-0.329,0.041-0.687,0.062-1.072,0.062c-0.676,0-1.296-0.116-1.858-0.348
		c-0.563-0.232-1.049-0.557-1.456-0.975c-0.408-0.418-0.726-0.92-0.953-1.505c-0.227-0.585-0.341-1.229-0.341-1.93
		c0-0.711,0.111-1.359,0.335-1.944c0.223-0.585,0.541-1.086,0.955-1.504c0.414-0.418,0.914-0.742,1.502-0.972
		c0.587-0.229,1.244-0.344,1.973-0.344c0.368,0,0.711,0.027,1.027,0.081c0.315,0.054,0.609,0.132,0.88,0.234
		c0.271,0.102,0.521,0.225,0.751,0.37c0.229,0.146,0.444,0.309,0.644,0.491L94.9,12.9c-0.073,0.117-0.169,0.175-0.286,0.175
		c-0.069,0-0.146-0.023-0.228-0.071c-0.108-0.061-0.229-0.134-0.364-0.221c-0.134-0.086-0.298-0.17-0.49-0.25
		c-0.193-0.08-0.42-0.148-0.683-0.205c-0.262-0.056-0.573-0.084-0.933-0.084c-0.524,0-0.999,0.086-1.424,0.257
		c-0.425,0.171-0.786,0.416-1.085,0.734c-0.299,0.319-0.529,0.705-0.689,1.157s-0.24,0.961-0.24,1.524
		c0,0.589,0.083,1.115,0.25,1.576s0.402,0.853,0.705,1.173c0.304,0.32,0.663,0.565,1.079,0.734S91.389,19.653,91.891,19.653z"/>
</g>
<g>
	<path fill="#E15445" d="M123.836,9.605v5.338h5.087v1.688h-5.087v5.375h-1.825V16.63h-5.063v-1.688h5.063V9.605H123.836z"/>
</g>
</svg>
