<?xml version="1.0" encoding="utf-8"?>
<!-- Generator: Adobe Illustrator 16.0.0, SVG Export Plug-In . SVG Version: 6.00 Build 0)  -->
<!DOCTYPE svg PUBLIC "-//W3C//DTD SVG 1.1//EN" "http://www.w3.org/Graphics/SVG/1.1/DTD/svg11.dtd">
<svg version="1.1" id="Layer_1" xmlns="http://www.w3.org/2000/svg" xmlns:xlink="http://www.w3.org/1999/xlink" x="0px" y="0px"
	 width="417.042px" height="409.807px" viewBox="0 0 417.042 409.807" enable-background="new 0 0 417.042 409.807"
	 xml:space="preserve">
<path fill="#303030" d="M33.749,281.408c-2.853,0-5.467-1.861-6.505-4.632c-12.175-33.985-14.707-70.646-7.316-106.003
	c7.542-36.271,25.322-69.573,51.417-96.307c36.962-37.822,86.521-58.651,139.549-58.651c51.252,0,99.606,19.671,136.157,55.391
	l1.729,1.688l-0.271-22.659c0-3.841,3.013-6.917,6.858-6.988l0.125-0.001c3.776,0,6.788,3.013,6.856,6.859l0.48,39.355
	c0,3.845-3.012,6.92-6.857,6.988l-39.354,0.48c-3.812,0-6.917-3.077-6.988-6.859c0-3.834,3.013-6.909,6.858-6.981l22.648-0.266
	l-1.726-1.687c-33.976-33.209-78.914-51.499-126.536-51.499c-49.238,0-95.264,19.345-129.601,54.472
	c-48.895,50.021-64.615,122.057-41.027,187.997c1.259,3.634-0.618,7.622-4.188,8.88C35.28,281.267,34.506,281.408,33.749,281.408z"
	/>
<path fill="#303030" d="M210.788,405.807c-51.171,0-99.535-19.701-136.18-55.474l-1.727-1.686l0.267,22.573
	c0,3.842-3.013,6.917-6.859,6.988c-3.804,0-6.91-3.077-6.981-6.858l-0.48-39.353c0-1.818,0.699-3.563,1.968-4.901
	c1.34-1.339,3.077-2.087,4.873-2.087l39.375-0.48c3.811,0,6.916,3.077,6.988,6.858c0,3.835-3.015,6.91-6.863,6.981l-22.645,0.267
	l1.727,1.687c34.051,33.263,78.968,51.581,126.476,51.579c0.716,0,1.439-0.005,2.156-0.013c48.333-0.561,93.613-19.93,127.5-54.539
	c48.92-50.047,64.61-122.084,40.949-187.998c-1.259-3.633,0.618-7.621,4.188-8.878c0.747-0.259,1.527-0.391,2.316-0.391
	c2.964,0,5.604,1.84,6.568,4.58c12.183,33.996,14.716,70.656,7.328,106.023c-7.576,36.436-25.355,69.765-51.416,96.384
	c-36.292,37.242-85.022,58.102-137.212,58.738H210.788z"/>
<path fill="#303030" d="M210.948,328.287c-47.758,0-90.417-28.521-108.678-72.659c-12.062-28.968-12.062-60.914,0-89.957
	c11.985-29.042,34.579-51.636,63.619-63.62c14.354-5.948,29.46-8.963,44.899-8.963c0.476,0,0.93,0.021,1.375,0.042
	c0.454,0.021,0.899,0.041,1.344,0.041h0.242c0.214,0,0.428,0.019,0.641,0.036c0.267,0.022,0.532,0.042,0.797,0.042h0.32
	c0.362,0.038,0.815,0.06,1.258,0.08c0.415,0.02,0.82,0.038,1.206,0.076c45.185,2.723,84.03,30.365,101.446,72.148
	c0.04,0.19,0.125,0.355,0.246,0.487c11.903,28.793,11.864,60.625-0.12,89.667c-11.979,29.044-34.573,51.638-63.616,63.617
	c-12.294,5.078-25.156,8.014-38.232,8.728l-0.129,0.007l-0.123,0.039c-0.088,0.028-0.12,0.03-0.334,0.03h-0.801
	c-0.38,0-0.739,0.021-1.1,0.043c-0.319,0.02-0.64,0.039-0.979,0.039h-0.4l-0.079,0.076c-0.106-0.005-0.221-0.019-0.334-0.031
	c-0.218-0.023-0.435-0.045-0.628-0.045h-0.061l-0.061,0.008C212.087,328.287,211.559,328.287,210.948,328.287z M165.194,261.268
	c8.737,27.7,23.821,47.147,40.351,52.021l1.283,0.379v-53.701h-42.043L165.194,261.268z M220.667,313.667l1.283-0.378
	c16.533-4.874,31.618-24.321,40.351-52.021l0.409-1.301h-42.043V313.667z M120.394,261.452
	c11.164,20.106,29.065,36.115,50.406,45.077l3.566,1.497l-2.393-3.038c-9.223-11.709-16.658-27.025-21.502-44.292l-0.205-0.729
	h-30.697L120.394,261.452z M277.107,260.694c-4.344,15.317-10.685,29.128-18.335,39.937l1.29,1.459
	c17.428-9.36,31.702-23.412,41.279-40.637l0.826-1.486h-24.854L277.107,260.694z M220.667,246.209h45.577l0.164-0.799
	c2.297-11.165,3.462-22.808,3.462-34.604c0-12.066-1.029-23.701-3.06-34.582l-0.152-0.816h-45.991V246.209z M113.128,176.071
	c-8.13,22.684-8.13,46.707,0,69.474l0.237,0.664h33.663l-0.217-1.181c-2.005-10.91-3.022-22.424-3.022-34.222
	c0-11.86,0.938-23.377,2.787-34.23l0.199-1.168h-33.409L113.128,176.071z M280.924,176.498c1.849,10.851,2.786,22.368,2.786,34.231
	c0,11.781-1.019,23.294-3.026,34.218l-0.217,1.181h27.904l0.237-0.662c8.131-22.686,8.131-46.708,0-69.472l-0.236-0.664h-27.647
	L280.924,176.498z M160.683,176.153c-2.026,11.327-3.054,22.959-3.054,34.575c0,11.814,1.165,23.456,3.461,34.601l0.165,0.798
	h45.573V175.33H160.83L160.683,176.153z M205.581,108.157c-17.727,4.514-32.711,23.514-41.112,52.129l-0.376,1.282h42.735V107.84
	L205.581,108.157z M260.362,121.692c7.29,10.617,13.057,23.757,17.14,39.056l0.197,0.742h24.475l-0.833-1.488
	c-9.33-16.671-23.046-30.416-39.665-39.748L260.362,121.692z M220.667,161.491h42.743l-0.382-1.285
	c-8.493-28.559-23.477-47.558-41.11-52.125l-1.251-0.324V161.491z M169.103,115.814c-20.89,9.233-37.733,24.513-48.708,44.189
	l-0.829,1.487h30.233l0.198-0.742c4.552-17.044,11.572-32.055,20.304-43.411L169.103,115.814z"/>
</svg>
