<?xml version="1.0" encoding="utf-8"?>
<!-- Generator: Adobe Illustrator 16.0.0, SVG Export Plug-In . SVG Version: 6.00 Build 0)  -->
<!DOCTYPE svg PUBLIC "-//W3C//DTD SVG 1.1//EN" "http://www.w3.org/Graphics/SVG/1.1/DTD/svg11.dtd">
<svg version="1.1" id="Layer_1" xmlns="http://www.w3.org/2000/svg" xmlns:xlink="http://www.w3.org/1999/xlink" x="0px" y="0px"
	 width="146.898px" height="127.635px" viewBox="0 0 146.898 127.635" enable-background="new 0 0 146.898 127.635"
	 xml:space="preserve">
<path fill="#E15445" d="M73.457,127.635c-1.122,0-2.215-0.329-3.161-0.951c-0.175-0.115-17.315-11.423-34.593-27.376
	C12.012,77.425,0,57.968,0,41.479C0,18.607,17.762,0,39.595,0c10.146,0,19.803,4.036,27.189,11.363l6.668,6.615l6.674-6.611
	C87.521,4.037,97.18,0,107.324,0c21.821,0,39.574,18.607,39.574,41.479c0,16.492-12.011,35.949-35.697,57.829
	c-17.226,15.92-34.413,27.269-34.584,27.381C75.677,127.31,74.587,127.635,73.457,127.635z M39.595,11.457
	c-15.515,0-28.138,13.468-28.138,30.021c0,27.137,46.995,62.72,56.416,69.578l5.581,4.063l5.578-4.066
	c9.421-6.876,56.409-42.539,56.409-69.574c0-16.554-12.613-30.021-28.117-30.021c-15.516,0-28.14,13.468-28.14,30.021
	c0,3.158-2.57,5.728-5.728,5.728c-3.159,0-5.729-2.569-5.729-5.728C67.728,24.925,55.107,11.457,39.595,11.457z"/>
</svg>
